<?xml version="1.0" standalone="no"?>
<!DOCTYPE svg PUBLIC "-//W3C//DTD SVG 20010904//EN"
 "http://www.w3.org/TR/2001/REC-SVG-20010904/DTD/svg10.dtd">
<svg version="1.0" xmlns="http://www.w3.org/2000/svg"
 width="1416.000000pt" height="624.000000pt" viewBox="0 0 1416.000000 624.000000"
 preserveAspectRatio="xMidYMid meet">
<metadata>
Created by potrace 1.16, written by Peter Selinger 2001-2019
</metadata>
<g transform="translate(0.000000,624.000000) scale(0.100000,-0.100000)"
fill="#000000" stroke="none">
<path d="M7036 4763 c-3 -26 -8 -95 -11 -153 -3 -58 -8 -126 -11 -152 l-6 -48
51 0 51 0 0 39 c0 36 30 91 49 91 5 0 22 -31 40 -69 33 -73 46 -81 122 -81
l29 0 -55 110 c-30 60 -55 114 -55 120 0 6 30 45 66 88 l66 77 -54 6 c-62 7
-72 0 -134 -86 -21 -30 -43 -55 -47 -55 -5 0 -7 35 -6 78 l2 77 -45 3 -46 3
-6 -48z"/>
<path d="M6479 4728 c-34 -9 -37 -13 -43 -51 -9 -69 -29 -378 -24 -382 2 -2
24 2 48 9 42 12 45 16 48 49 3 35 6 37 54 52 56 16 88 19 88 8 0 -5 7 -17 15
-27 13 -17 18 -18 60 -6 25 7 45 17 45 21 0 13 -234 332 -246 335 -5 1 -25 -3
-45 -8z"/>
<path d="M7641 4519 c-40 -100 -69 -185 -64 -189 15 -15 234 -101 242 -95 5 3
14 18 19 34 l10 29 -79 32 c-43 18 -79 35 -79 38 0 20 26 72 36 72 7 0 38 -10
69 -22 56 -21 58 -21 71 -3 26 35 17 49 -46 74 -34 14 -63 28 -66 32 -5 8 22
69 30 69 2 0 36 -13 74 -30 39 -16 75 -30 80 -30 10 0 35 60 29 66 -4 4 -244
104 -249 104 -2 0 -37 -82 -77 -181z"/>
<path d="M5882 4452 l-42 -37 46 -123 c26 -67 44 -125 41 -128 -3 -3 -55 28
-115 70 l-110 76 -51 -38 c-28 -20 -51 -39 -51 -42 0 -7 197 -260 225 -289
l23 -24 36 28 36 27 -19 27 c-11 14 -46 58 -79 96 -33 39 -57 71 -52 73 5 2
56 -29 114 -68 104 -69 106 -70 131 -54 14 9 25 18 25 19 0 2 -20 60 -45 129
-24 69 -40 126 -35 126 5 0 34 -35 64 -77 95 -132 85 -126 133 -85 l33 27
-121 153 c-66 83 -126 152 -132 152 -7 0 -31 -17 -55 -38z"/>
<path d="M8153 4255 c-68 -79 -123 -148 -123 -152 0 -4 15 -20 34 -35 l35 -28
45 52 46 53 20 -20 c20 -20 20 -21 0 -90 l-19 -70 27 -27 c45 -45 53 -41 76
47 21 80 21 80 56 83 48 4 77 20 100 58 25 40 25 88 1 128 -20 31 -153 147
-168 145 -4 0 -63 -65 -130 -144z"/>
<path d="M6946 4199 c-444 -48 -814 -414 -863 -854 -11 -97 2 -275 26 -368
135 -516 674 -835 1185 -702 480 126 796 581 737 1063 -19 152 -81 321 -164
442 -47 68 -175 197 -242 245 -193 137 -441 200 -679 174z m368 -145 c117 -15
164 -31 239 -82 19 -13 25 -22 17 -27 -19 -12 -99 5 -204 43 -92 34 -110 37
-196 36 -57 -1 -164 -14 -265 -32 -206 -37 -354 -56 -363 -47 -9 9 31 39 93
70 92 46 464 68 679 39z m76 -99 c17 -9 30 -17 30 -19 0 -3 2 -10 5 -18 4 -10
-12 -13 -72 -14 -59 -1 -114 -11 -223 -42 -470 -132 -513 -140 -734 -134 l-78
2 28 38 c15 20 32 40 38 44 6 4 51 6 101 6 149 0 288 24 545 97 187 53 308 67
360 40z m234 -141 l110 0 30 -37 c16 -20 27 -39 25 -42 -3 -2 -67 -5 -143 -6
-159 -2 -173 5 -183 81 l-6 42 29 -18 c23 -16 48 -19 138 -20z m-270 -38 c24
-10 43 -31 67 -72 61 -107 54 -104 265 -104 202 0 188 4 214 -65 l10 -26 -212
3 c-240 3 -233 2 -335 87 -89 74 -145 101 -213 101 -69 0 -125 -19 -299 -99
-187 -86 -209 -91 -444 -91 l-198 0 6 23 c4 12 13 32 21 45 14 22 18 22 202
22 220 0 250 6 540 105 244 83 315 96 376 71z m-363 -200 c31 -8 119 -43 195
-77 265 -118 246 -113 514 -117 166 -2 237 -7 242 -15 4 -7 8 -27 8 -44 l0
-33 -214 0 c-275 0 -316 9 -657 138 -112 42 -256 82 -298 82 l-24 0 24 26 c49
54 111 65 210 40z m-331 -211 c-6 -19 -23 -44 -37 -55 -24 -19 -40 -20 -238
-20 -116 0 -214 2 -217 5 -3 3 -2 22 1 43 l6 37 221 5 c182 4 224 8 245 21 29
20 34 11 19 -36z m230 0 c31 -8 134 -44 229 -80 327 -123 302 -118 584 -123
l247 -4 0 -28 c0 -62 6 -60 -214 -60 -243 0 -280 8 -460 91 -307 142 -362 157
-441 119 -30 -15 -64 -45 -103 -93 -37 -46 -73 -80 -102 -95 -43 -21 -54 -22
-250 -20 l-205 3 -3 43 -3 42 206 0 c265 0 255 -5 300 137 9 29 26 60 38 68
27 19 103 19 177 0z m348 -204 c20 -10 46 -28 56 -40 19 -21 19 -21 -13 -21
-43 0 -192 -50 -278 -93 -272 -137 -395 -166 -637 -152 l-127 7 -14 35 c-8 20
-15 37 -15 38 0 2 93 5 208 7 242 5 238 3 446 122 72 41 154 84 181 95 65 26
144 27 193 2z m243 -201 c39 -17 66 -20 232 -20 203 0 201 1 175 -55 -11 -25
-12 -25 -152 -27 -216 -4 -224 -3 -244 15 -10 9 -22 17 -26 17 -10 0 1 -85 15
-121 16 -40 48 -49 184 -49 69 0 125 -4 125 -8 0 -4 -12 -22 -27 -40 -28 -32
-28 -32 -135 -34 -130 -4 -150 7 -188 100 -14 34 -35 72 -47 84 -43 42 -143
23 -448 -84 -200 -70 -310 -97 -436 -104 l-109 -7 -42 44 -42 44 149 6 c170 7
233 22 435 99 69 27 194 72 279 100 126 43 162 51 202 48 27 -3 49 -1 49 3 0
12 2 12 51 -11z m-191 -355 c24 -8 64 -28 89 -44 49 -30 92 -45 156 -56 38 -6
39 -8 20 -22 -11 -8 -39 -26 -62 -39 l-42 -25 -118 21 c-153 28 -266 28 -490
0 l-181 -23 -63 38 c-71 44 -68 48 45 59 37 4 130 23 205 42 243 64 363 77
441 49z"/>
<path d="M8400 2834 c-73 -107 -90 -138 -79 -145 28 -19 51 -31 53 -27 1 2 17
22 35 45 l33 43 121 -83 c67 -46 127 -87 133 -90 7 -4 23 10 38 33 l26 39
-130 88 c-71 48 -129 92 -130 96 0 5 14 29 31 53 17 25 29 47 27 48 -20 15
-54 36 -59 36 -3 0 -48 -61 -99 -136z"/>
<path d="M5470 2849 c-85 -60 -156 -113 -158 -119 -5 -14 37 -70 51 -70 7 0
30 14 51 30 22 17 44 30 50 30 6 -1 23 -19 39 -41 70 -102 193 -105 240 -6 21
43 21 67 3 112 -14 33 -100 160 -114 169 -4 2 -77 -45 -162 -105z"/>
<path d="M7989 2424 c-52 -36 -101 -69 -109 -74 -15 -9 5 -43 147 -247 l64
-93 109 73 c60 39 110 77 110 83 0 7 -8 22 -19 35 l-19 23 -71 -47 -70 -47
-26 34 c-14 18 -25 35 -25 38 0 3 23 21 52 39 28 19 56 37 61 40 10 7 -20 59
-34 59 -5 0 -35 -17 -65 -37 l-56 -37 -19 23 c-11 13 -19 29 -19 37 0 8 29 33
65 56 35 24 65 48 65 53 0 14 -29 55 -39 55 -4 0 -50 -30 -102 -66z"/>
<path d="M5999 2397 c-25 -40 -74 -113 -107 -164 l-61 -92 99 -66 c55 -36 106
-68 113 -70 7 -3 20 8 30 24 l18 30 -65 43 c-36 24 -66 47 -66 51 0 4 36 62
80 128 45 66 83 125 85 132 5 11 -55 58 -72 56 -5 0 -29 -32 -54 -72z"/>
<path d="M7498 2193 c-34 -5 -35 -16 -8 -133 10 -46 17 -87 14 -90 -5 -5 -33
23 -133 134 -42 47 -44 48 -87 41 -24 -3 -46 -10 -49 -14 -3 -7 36 -208 71
-360 4 -21 9 -23 45 -18 23 3 44 8 47 12 4 3 -3 51 -14 106 -11 55 -17 102
-13 105 4 2 44 -39 90 -91 53 -61 89 -93 99 -91 8 3 30 7 48 11 17 4 32 8 32
10 0 8 -71 351 -76 368 -5 17 -13 18 -66 10z"/>
<path d="M6570 1998 c-61 -99 -109 -182 -107 -184 2 -3 26 -7 54 -10 46 -6 49
-5 61 21 12 25 16 27 56 22 75 -11 96 -23 96 -56 0 -35 2 -37 58 -46 39 -6 42
-5 42 17 0 36 -52 382 -59 390 -3 4 -25 11 -48 16 l-41 10 -112 -180z"/>
</g>
</svg>
